<svg viewBox="0 0 400 220" xmlns="http://www.w3.org/2000/svg">
  <rect width="400" height="220" fill="#0f172a"/>
  <!-- 大コントローラー（中央） -->
  <rect x="110" y="68" width="180" height="100" rx="30" fill="#1e293b"/>
  <rect x="110" y="68" width="180" height="100" rx="30" fill="none" stroke="#7c3aed" stroke-width="2"/>
  <!-- スティック -->
  <circle cx="156" cy="120" r="15" fill="#334155"/>
  <circle cx="156" cy="120" r="6" fill="#7c3aed"/>
  <circle cx="220" cy="135" r="15" fill="#334155"/>
  <circle cx="220" cy="135" r="6" fill="#7c3aed"/>
  <!-- ボタン群 -->
  <circle cx="255" cy="100" r="8" fill="#e8253a"/>
  <circle cx="270" cy="88" r="8" fill="#f59e0b"/>
  <circle cx="270" cy="112" r="8" fill="#16a34a"/>
  <circle cx="285" cy="100" r="8" fill="#3b82f6"/>
  <!-- 十字キー -->
  <rect x="130" y="130" width="6" height="18" rx="2" fill="#475569"/>
  <rect x="123" y="137" width="20" height="6" rx="2" fill="#475569"/>
  <!-- ブランドタグ -->
  <rect x="32" y="68" width="68" height="26" rx="6" fill="#e8253a"/>
  <text x="66" y="85" font-family="sans-serif" font-size="10" font-weight="700" fill="white" text-anchor="middle">GameSir</text>
  <rect x="32" y="102" width="68" height="26" rx="6" fill="#3b82f6"/>
  <text x="66" y="119" font-family="sans-serif" font-size="10" font-weight="700" fill="white" text-anchor="middle">8BitDo</text>
  <rect x="32" y="136" width="68" height="26" rx="6" fill="#16a34a"/>
  <text x="66" y="153" font-family="sans-serif" font-size="10" font-weight="700" fill="white" text-anchor="middle">Flydigi</text>
  <!-- 右側価格帯 -->
  <rect x="300" y="68" width="68" height="94" rx="8" fill="#1e293b" stroke="#334155" stroke-width="1.5"/>
  <text x="334" y="90" font-family="sans-serif" font-size="9" fill="#9ca3af" text-anchor="middle">最安</text>
  <text x="334" y="107" font-family="sans-serif" font-size="14" font-weight="900" fill="#7c3aed" text-anchor="middle">¥2,500</text>
  <line x1="308" y1="116" x2="360" y2="116" stroke="#334155" stroke-width="1"/>
  <text x="334" y="132" font-family="sans-serif" font-size="9" fill="#9ca3af" text-anchor="middle">国内比</text>
  <text x="334" y="150" font-family="sans-serif" font-size="13" font-weight="900" fill="#e8253a" text-anchor="middle">−40%</text>
  <text x="200" y="210" font-family="sans-serif" font-size="10" fill="#9ca3af" text-anchor="middle">アリエクゲームパッド比較10選</text>
</svg>
